<?xml version="1.0" encoding="UTF-8"?>
<svg id="Capa_2" data-name="Capa 2" xmlns="http://www.w3.org/2000/svg" viewBox="0 0 94.88 99.26">
  <defs>
    <style>
      .cls-1 {
        fill: #fff;
      }
    </style>
  </defs>
  <g id="Capa_1-2" data-name="Capa 1">
    <g>
      <path class="cls-1" d="M94.66,79.54c-1.2-6.6-7.11-11.16-13.63-10.85l-24.62-40.03-5.03-8.19c1.78-2.74,2.56-6.13,1.93-9.59C52,3.68,45.1-1.09,37.91.22s-11.97,8.21-10.65,15.4c.23,1.26.63,2.43,1.17,3.52,1.93,3.89,5.68,6.59,9.95,7.21.76.11,1.53.16,2.31.13l5.14,8.37,24.6,40c-1.71,2.71-2.44,6.04-1.83,9.43,1.31,7.2,8.21,11.97,15.4,10.66,7.2-1.31,11.97-8.21,10.66-15.4Z"/>
      <path class="cls-1" d="M43.76,61.91c-5.14.94-8.82,5.19-9.28,10.14l-12.06,4.43c-.2-.2-.41-.39-.63-.57l13.67-40.88c-3.96-.88-7.59-2.82-10.5-5.57l-14.59,43.62c-6.92,1.53-11.44,8.27-10.16,15.3,1.31,7.2,8.21,11.97,15.4,10.66,6.12-1.11,10.48-6.27,10.84-12.21l12.57-4.61c2.44,1.81,5.59,2.66,8.81,2.07,6.18-1.13,10.28-7.05,9.15-13.23-1.13-6.18-7.05-10.28-13.23-9.15Z"/>
    </g>
  </g>
</svg>