<?xml version="1.0" encoding="UTF-8"?>
<svg id="Capa_2" data-name="Capa 2" xmlns="http://www.w3.org/2000/svg" viewBox="0 0 398.48 86.47">
  <defs>
    <style>
      .cls-1 {
        fill: #006efa;
      }

      .cls-2 {
        fill: #ebedf8;
        font-family: ProximaNova-Bold, 'Proxima Nova';
        font-size: 54.71px;
        font-weight: 700;
      }

      .cls-3 {
        letter-spacing: 0em;
      }

      .cls-4 {
        fill: #21adeb;
      }
    </style>
  </defs>
  <g id="Capa_1-2" data-name="Capa 1">
    <text class="cls-2" transform="translate(82.65 57.07)"><tspan x="0" y="0">SINTERGI</tspan><tspan class="cls-3" x="240.99" y="0">C</tspan><tspan x="278.19" y="0">A</tspan></text>
    <g>
      <path class="cls-4" d="M82.46,69.29c-1.05-5.75-6.19-9.72-11.88-9.45l-21.44-34.87-4.39-7.13c1.55-2.38,2.23-5.34,1.68-8.36C45.3,3.2,39.29-.95,33.02.19c-6.27,1.14-10.42,7.15-9.28,13.42.2,1.09.55,2.12,1.02,3.07,1.68,3.39,4.94,5.74,8.67,6.28.66.1,1.33.14,2.01.12l4.48,7.29,21.43,34.85c-1.49,2.36-2.13,5.26-1.59,8.22,1.14,6.27,7.15,10.42,13.42,9.28,6.27-1.14,10.42-7.15,9.28-13.42Z"/>
      <path class="cls-1" d="M38.12,53.93c-4.47.81-7.68,4.52-8.08,8.84l-10.5,3.86c-.18-.17-.36-.34-.55-.5l11.91-35.61c-3.45-.76-6.61-2.46-9.15-4.85l-12.71,38c-6.03,1.33-9.97,7.2-8.85,13.33,1.14,6.27,7.15,10.42,13.42,9.28,5.33-.97,9.13-5.46,9.45-10.64l10.95-4.02c2.13,1.58,4.87,2.31,7.68,1.8,5.38-.98,8.95-6.14,7.97-11.52-.98-5.38-6.14-8.95-11.52-7.97Z"/>
    </g>
  </g>
</svg>