<?xml version="1.0" encoding="UTF-8"?>
<svg id="Capa_2" data-name="Capa 2" xmlns="http://www.w3.org/2000/svg" viewBox="0 0 359.05 311.3">
  <defs>
    <style>
      .cls-1 {
        fill: #35383d;
      }
    </style>
  </defs>
  <g id="Capa_1-2" data-name="Capa 1">
    <g>
      <g>
        <path class="cls-1" d="M275.08,224.48c-4.65-2.43-9.88-3.9-15.11-3.9-10.45,0-20.33,4.86-26.73,12.61-12.77,16.5-34.85,27.66-59.85,27.66s-48.8-11.16-61.57-27.66c-6.4-7.75-15.7-12.61-26.15-12.61-5.8,0-10.45,1.47-15.68,3.9-14.53,8.23-19.19,23.77-9.88,35.41,24.39,31.06,65.08,51.41,113.29,51.41s87.73-20.35,111.57-51.41c9.31-11.65,4.65-27.18-9.88-35.41Z"/>
        <path class="cls-1" d="M274.65,3.24c-47.58,0-85.5,37.92-85.5,85.13s37.93,85.51,85.5,85.51,84.4-37.93,84.4-85.51S321.13,3.24,274.65,3.24ZM274.65,134.84c-26.02,0-46.47-20.81-46.47-46.47s20.46-46.48,46.47-46.48,45.73,21.19,45.73,46.48-20.81,46.47-45.73,46.47Z"/>
      </g>
      <path class="cls-1" d="M136.07,82.75c-1.09-1.69-2.34-3.21-3.72-4.55-1.18-1.58-2.55-3.06-4.13-4.38L47.53,6.04C36.63-3.12,20.37-1.7,11.21,9.2h0c-9.15,10.9-7.74,27.16,3.16,36.31l57.24,48.07-59.78,38.47c-11.97,7.7-15.43,23.65-7.73,35.62h0c7.7,11.97,23.65,15.43,35.62,7.73l88.62-57.03c3.93-2.53,6.94-5.94,8.94-9.81.19-.37.37-.74.54-1.12.09-.19.17-.38.25-.57,1.39-3.23,2.1-6.72,2.09-10.24,0-4.76-1.33-9.58-4.1-13.88Z"/>
    </g>
  </g>
</svg>