<svg viewBox="0 0 500 500" xmlns="http://www.w3.org/2000/svg"><rect x="44.43228" y="51.01653" width="403.62296" height="403.62296" style="fill:#fff"></rect><path d="M279.31317,108.07171c1.44757,1.08567,3.43795,1.62851,5.79025,1.62851s4.34268-.54284,5.79025-1.62851,2.53322-2.71418,3.25702-4.88552c.72377-2.17134,1.08568-4.52363,1.08568-7.41876,0-4.34269-.72377-7.78066-2.3523-10.31388-1.44757-2.53324-4.16175-3.79985-7.78066-3.79985s-4.34268.54284-5.9712,1.62851c-1.44757,1.08567-2.53322,2.71418-3.25702,4.88552-.72377,2.17134-1.08568,4.52363-1.08568,7.41876s.36189,5.42836,1.08568,7.41876c.72377,2.17134,1.80945,3.61891,3.25702,4.88552h.18096v.18094Z" style="fill:#a4174a"></path><path d="M387.51847,380.03257c-3.43795,0-6.15213.72377-8.14254,2.35227-1.99041,1.6285-3.61891,3.79986-4.52363,6.695-.90473,2.89514-1.44757,6.33309-1.44757,10.31391s.54284,7.41877,1.44757,10.31391,2.53322,5.06645,4.52363,6.695c1.99041,1.62855,4.70459,2.35227,7.96158,2.35227s5.9712-.72377,7.96158-2.35227c1.99041-1.6285,3.61891-3.79986,4.52363-6.695s1.44757-6.33309,1.44757-10.31391c0-5.97117-1.08568-10.67576-3.25702-14.11372-2.17134-3.43795-5.60932-5.2474-10.67576-5.2474h.18096v-.00006Z" style="fill:#a4174a"></path><path d="M5,42.25353v188.86103l20.26588,20.26587-20.26588,20.26587v186.55467c0,20.62776,16.82792,37.45571,37.45569,37.45571h187.64032l19.72303-19.72303,19.72303,19.72303h188.00221c20.62776,0,37.45571-16.8279,37.45571-37.45571v-186.19276l-20.62776-20.62776,20.62776-20.62776V42.25353M415.74596,210.30585v60.97858h0l-66.94978-23.70385-21.1706-7.41877h0c7.41877-9.40915,13.93279-19.36115,19.90399-29.85598h68.39735-.18096v.00003ZM263.20902,238.8952c.36189-.18096.54284-.36189.90473-.72377,0,0,.36189-.36189.54284-.36189,1.26661-1.26661,2.3523-2.71418,3.61891-4.16175l.72377.36189,13.93279,6.51404,2.53322,1.26661,3.79986,1.80945,6.69497,3.07607c-1.99041,2.17134-4.16175,4.16175-6.33309,6.15213-.36189.36189-.90473.72377-1.26661,1.08568-3.61891,3.25702-7.41877,6.51404-11.21861,9.59011l-1.80945-1.26661-7.41877-5.42836-6.87593-5.06648-7.05686-5.2474h-.18096c3.25702-2.53322,6.51404-5.06648,9.59011-7.78066h0l-.18093.18093ZM249.81907,224.96241c-3.79986,3.79986-8.50443,6.87593-13.75184,8.68538-3.79985,1.26661-7.78066,2.17134-12.12333,2.17134s-2.3523,0-3.43796,0c-9.04727-.90473-17.18981-5.06648-22.98005-11.39956h0l3.61891-1.08568,3.25702-1.08568,9.59011-3.07607c1.26661.72377,2.53324,1.08568,3.79985,1.6285,1.9904.54284,3.98079.90473,6.15214.90473,3.61891,0,7.05687-.90473,9.95199-2.3523.36189,0,.90473-.54284,1.26661-.72377.54284-.36189.90473-.54284,1.44757-.90473,1.26661-.90473,2.3523-1.99041,3.43795-3.07607,0,0,.36189-.36189.36189-.54284.90473-1.08568,1.6285-2.17134,2.3523-3.25702h15.74224c-.54284,1.6285-1.08568,3.25702-1.99041,4.88552-1.80945,3.61891-3.98079,6.87593-6.87593,9.77104v-.54284l.18096.00006ZM275.15142,221.70539c1.6285-3.61891,2.71418-7.41877,3.43795-11.39956h46.14107c-5.06648,8.14254-10.67576,15.74224-16.64697,22.98005l-9.22822-3.25702-1.80945-.54284-11.58049-3.98079-5.79025-1.99041-4.52363-1.6285h0v-.18093ZM280.2179,285.76006h0l16.82792,14.11374,26.96085,22.61817,2.17134,1.80945,3.25702,2.71418h-22.61817l-21.1706-18.99926-16.46604-14.65658h0c3.79986-2.3523,7.41877-4.88552,11.03768-7.5997ZM310.97861,288.65517l-17.73265-12.84713h0c7.41877-6.33309,14.65658-13.02806,21.1706-20.26587h0l20.08495,9.40915,61.15954,28.7703v33.47489h-32.20828l-52.65511-38.54137h.18096v.00003ZM373.40475,73.51115h13.5709l17.91358,32.20828h.18096v-32.20828h9.59011v44.51257h-13.75186l-17.91358-32.57016h-.18096c0,1.26661,0,2.53324.18096,3.98079,0,1.44757,0,2.71418.18096,4.16175v24.60858h-9.40915v-44.51255h-.36189l-.00003-.18097ZM336.31096,73.51115h26.05612v8.68538h-15.38036v8.50443h14.29467v8.68538h-14.29467v9.95199h15.38036v8.68538h-26.05612v-44.51257ZM334.68243,164.7076h54.28361c-2.3523,8.50443-5.06648,16.82792-8.3235,24.97046h-56.81683c4.16175-7.96158,7.78066-16.28508,10.85672-24.97046ZM266.10415,83.64409c1.44757-3.43796,3.79986-6.15214,7.05686-7.9616,3.07607-1.80945,7.23781-2.71418,12.12333-2.71418s8.86631.90473,12.12333,2.89512c3.07607,1.80945,5.42836,4.52363,7.05686,7.9616,1.44757,3.43796,2.17134,7.41876,2.17134,12.12333s-.36189,6.51403-1.26661,9.40915c-.90473,2.71418-2.17134,5.24742-3.79986,7.23781-1.80945,1.99041-3.98079,3.61891-6.69497,4.70459-2.71418,1.08568-5.9712,1.6285-9.59011,1.6285s-6.87593-.54284-9.59011-1.6285-4.88552-2.71418-6.69497-4.70459-3.07607-4.52363-3.98079-7.23781c-.90473-2.71418-1.26661-5.9712-1.26661-9.40915s.72377-8.68538,2.3523-12.12333h0l.00003-.18094ZM215.43945,73.51115h10.67578v17.00887h15.92318v-17.00887h10.67576v44.51257h-10.67576v-18.63738h-15.9232v18.63738h-10.67578s0-44.51255.00001-44.51257ZM172.19351,86.72017c.90473-2.71418,2.3523-5.24742,4.16175-7.23781s4.16175-3.61891,6.69497-4.70458c2.71418-1.08567,5.79025-1.62851,9.22821-1.62851s4.52363,0,6.87593.72378c2.3523.54284,4.52363,1.26661,6.69497,2.17134l-3.43796,8.50443c-1.44757-.72378-3.07607-1.44757-4.88552-1.9904-1.62851-.54284-3.43796-.72378-5.24742-.72378s-3.07607.36189-4.34269,1.08567c-1.26661.72378-2.3523,1.62851-3.25702,2.89512s-1.62851,2.71418-2.17134,4.52363c-.54284,1.80945-.72378,3.79985-.72378,5.9712s.36189,5.6093,1.26661,7.5997c.72378,1.9904,1.9904,3.61891,3.61891,4.70458s3.61891,1.62851,6.15214,1.62851,3.79985,0,5.6093-.72378c1.80945-.54284,3.61891-1.08567,5.42836-1.80945v9.04727c-1.80945.90473-3.79985,1.44757-5.79025,1.80945s-4.16175.54284-6.51403.54284c-4.70458,0-8.68538-.90473-11.76145-2.89514s-5.24742-4.52363-6.87593-7.9616c-1.44757-3.43796-2.17134-7.41876-2.17134-11.94239s.54284-6.51403,1.44757-9.22821c0,0,0-.36189,0-.36187ZM169.29839,189.85902l18.99926-7.78066,5.6093-2.17134,37.99852-15.38036h84.86337c-3.43795,8.68538-7.41877,17.00885-11.9424,24.97046h-67.85451l-19.90399,7.41877-9.40915,3.43795-4.88552,1.80945-8.32348,3.07607-2.71418,1.08568-2.71418,1.08568-1.26661.36189-6.51403,2.3523-3.25702,1.26661-1.26661-1.26661-7.9616-7.23781-9.77105-8.86631h0l8.68538-3.43795,1.9904-.72377h-.36189v-.00006ZM135.64254,73.51115h26.05613v8.68538h-15.38036v8.50443h14.29469v8.68538h-14.29469v9.95199h15.38036v8.68538h-26.05613v-44.51257ZM85.52068,73.51115h10.67578v17.00887h15.92319v-17.00887h10.67577v44.51257h-10.67578v-18.63738h-15.92319v18.63738h-10.67578s0-44.51255,0-44.51257ZM85.52068,245.95208v-.54284c4.70458-15.56131,18.99926-26.23708,35.28434-26.23708h36.73191l77.98745,70.2068v7.78066h-62.78805l-29.4941-22.98005h-26.41802c-4.34269,0-8.32348,2.89514-9.77105,7.05686l-1.08567,3.43795c-.72378,1.99041-3.25702,2.53322-4.52363.90473l-1.08567-.72377c-13.02807-8.14254-19.1802-24.24667-14.65657-39.08421h0l-.18094.18096ZM196.07829,355.06214c-1.08567.90473-2.3523,1.80945-3.61891,2.71418-1.62851,1.26664-3.25702,2.35227-4.70458,3.43795-1.62851,1.08568-2.89512,1.99041-3.98079,2.71418h-9.59011v-1.26664c.90473-1.08568,2.17134-2.35227,3.43796-3.79986,1.08567-1.26664,2.3523-2.71418,3.43796-3.98082h15.01847v.18101ZM150.29913,430.15446h-13.5709v-45.96016h-.36189l-14.11374,46.14107h-13.75184l-13.75184-46.14107h-.36189c0,1.08568,0,2.71418.36189,4.88555,0,2.17137,0,4.34268.36189,6.8759v34.37962h-13.02807v-61.15951h19.72305l13.5709,45.23634h.36189l14.11374-45.23634h19.5421v61.15951h.54284l.36187-.1809ZM200.42098,380.75635h-26.55224v11.76145h24.92374v11.76145h-24.92374v13.75186h26.55224v11.9424h-41.02787v-61.15951h41.02787v11.76145h0v.1809ZM247.28582,430.15446l-12.84712-20.62776-12.84712,20.62776h-16.46602l20.26587-31.30352-18.99926-29.85598h16.28508l11.76145,19.90399,11.58051-19.90399h16.64697l-19.18022,30.76071,20.80872,30.3988h-17.00885ZM253.98082,279.78886l-8.50443-7.5997-13.38996-11.9424-5.42836-4.88552c4.88552-.18096,9.77105-1.08568,14.29469-2.53322l1.6285,1.44757,13.5709,11.39956,8.68538,7.23781c-3.43795,2.3523-7.05686,4.70459-10.85672,7.05686h0v-.18096ZM297.04579,377.31839l-7.5997,3.25699v38.17948l7.5997,3.25699v8.3235h-29.67503v-8.3235l7.5997-3.25699v-38.17948l-7.5997-3.25699v-8.3235h29.67503v8.3235ZM321.11153,410.25047c1.08568,2.89514,2.71418,5.06645,5.06648,6.51404,2.17134,1.44754,5.06648,2.17137,8.3235,2.17137s5.2474-.36191,7.78066-1.08568c2.53322-.72377,5.06648-1.6285,7.5997-2.53322v12.48522c-2.53322,1.08568-5.2474,1.99041-7.96158,2.53322s-5.79025.72377-8.86631.72377c-6.51404,0-11.9424-1.26664-16.10413-3.98082-4.16175-2.71418-7.23781-6.33309-9.40915-11.03768-1.99041-4.70459-3.07607-10.13295-3.07607-16.46604s.72377-8.86631,1.99041-12.66617c1.26661-3.79986,3.25702-7.23781,5.60932-9.95199,2.53322-2.89514,5.60932-5.06645,9.22822-6.51404,3.61891-1.6285,7.96158-2.35227,12.66617-2.35227s6.15213.36191,9.40915,1.08568c3.25702.72377,6.33309,1.6285,9.22822,3.07609l-4.70459,11.58049c-2.17134-1.08568-4.34268-1.80945-6.69497-2.53322-2.3523-.72377-4.70459-1.08568-7.23781-1.08568s-4.16175.54281-5.9712,1.44754c-1.80945.90473-3.25702,2.17137-4.52363,3.98082-1.26661,1.6285-2.17134,3.79986-2.89514,6.15213-.72377,2.35227-.90473,5.06645-.90473,8.14254s.54284,7.59973,1.6285,10.49481h-.18096l-.00006-.1809ZM415.02219,412.42178c-1.08568,3.79986-2.89514,7.23781-5.2474,9.95199-2.3523,2.71418-5.42836,4.88555-9.04727,6.33309-3.79986,1.44754-8.14254,2.17137-13.20902,2.17137s-9.40915-.72377-13.20902-2.17137-6.69497-3.61891-9.22822-6.33309c-2.3523-2.71418-4.16175-6.15213-5.42836-9.95199-1.08568-3.79986-1.80945-8.14254-1.80945-13.02809s1.08568-11.9424,3.25702-16.64699,5.2474-8.3235,9.59011-10.85672c4.34268-2.53322,9.95199-3.79986,16.64697-3.79986s12.30429,1.26664,16.64697,3.98082c4.34268,2.53322,7.5997,6.33309,9.59011,11.03768s3.07607,10.31391,3.07607,16.64699-.54284,9.04727-1.80945,12.84713h.18096v-.18096Z" style="fill:#a4174a"></path><path d="M495,66.88835v-25.08934c0-20.62776-16.82792-37.45571-37.45569-37.45571h-187.64032l-19.72303,19.72303-19.72303-19.72303H42.45571C21.82795,4.3433,5,21.17119,5,41.79901v25.08934" style="fill:#a4174a"></path></svg>